<svg width="48" height="48" viewBox="0 0 24 24" fill="none" xmlns="http://www.w3.org/2000/svg">
  <path d="M12 15.5C13.933 15.5 15.5 13.933 15.5 12C15.5 10.067 13.933 8.5 12 8.5C10.067 8.5 8.5 10.067 8.5 12C8.5 13.933 10.067 15.5 12 15.5Z" stroke="white" stroke-width="1.8" stroke-linecap="round" stroke-linejoin="round"/>
  <path d="M19.4 15A1.65 1.65 0 0 0 20 13.6V10.4A1.65 1.65 0 0 0 19.4 9L17.9 8.2L17.5 6.5L15.8 6L14.9 4.6L13.6 5.2L12 4.8L10.4 5.2L9.1 4.6L8.2 6L6.5 6.5L6.1 8.2L4.6 9A1.65 1.65 0 0 0 4 10.4V13.6A1.65 1.65 0 0 0 4.6 15L6.1 15.8L6.5 17.5L8.2 18L9.1 19.4L10.4 18.8L12 19.2L13.6 18.8L14.9 19.4L15.8 18L17.5 17.5L17.9 15.8L19.4 15Z" stroke="white" stroke-width="1.8" stroke-linecap="round" stroke-linejoin="round"/>
</svg>
